<?xml version="1.0" encoding="utf-8" standalone="no"?>
<!DOCTYPE svg PUBLIC "-//W3C//DTD SVG 1.1//EN"
  "http://www.w3.org/Graphics/SVG/1.1/DTD/svg11.dtd">
<svg xmlns:xlink="http://www.w3.org/1999/xlink" width="504pt" height="302.4pt" viewBox="0 0 504 302.4" xmlns="http://www.w3.org/2000/svg" version="1.1">
 <metadata>
  <rdf:RDF xmlns:dc="http://purl.org/dc/elements/1.1/" xmlns:cc="http://creativecommons.org/ns#" xmlns:rdf="http://www.w3.org/1999/02/22-rdf-syntax-ns#">
   <cc:Work>
    <dc:type rdf:resource="http://purl.org/dc/dcmitype/StillImage"/>
    <dc:format>image/svg+xml</dc:format>
    <dc:creator>
     <cc:Agent>
      <dc:title>Matplotlib v3.10.9, https://matplotlib.org/</dc:title>
     </cc:Agent>
    </dc:creator>
   </cc:Work>
  </rdf:RDF>
 </metadata>
 <defs>
  <style type="text/css">*{stroke-linejoin: round; stroke-linecap: butt}</style>
 </defs>
 <g id="figure_1">
  <g id="patch_1">
   <path d="M 0 302.4
L 504 302.4
L 504 0
L 0 0
z
" style="fill: #ffffff"/>
  </g>
  <g id="axes_1">
   <g id="patch_2">
    <path d="M 61.853365 269.04351
L 500.99976 269.04351
L 500.99976 18.118365
L 61.853365 18.118365
z
" style="fill: #ffffff"/>
   </g>
   <g id="matplotlib.axis_1">
    <g id="xtick_1">
     <g id="line2d_1">
      <path d="M 79.808414 269.04351
L 79.808414 18.118365
" clip-path="url(#p55ec4d22c4)" style="fill: none; stroke: #b0b0b0; stroke-opacity: 0.2; stroke-width: 0.8; stroke-linecap: square"/>
     </g>
     <g id="line2d_2">
      <defs>
       <path id="mc78f93be90" d="M 0 0
L 0 3.5
" style="stroke: #000000; stroke-width: 0.8"/>
      </defs>
      <g>
       <use xlink:href="#mc78f93be90" x="79.808414" y="269.04351" style="stroke: #000000; stroke-width: 0.8"/>
      </g>
     </g>
     <g id="text_1">
      <text style="font-size: 10px; font-family: 'DejaVu Sans', 'Bitstream Vera Sans', 'Computer Modern Sans Serif', 'Lucida Grande', 'Verdana', 'Geneva', 'Lucid', 'Arial', 'Helvetica', 'Avant Garde', sans-serif; text-anchor: middle" x="79.808414" y="283.641948" transform="rotate(-0 79.808414 283.641948)">0</text>
     </g>
    </g>
    <g id="xtick_2">
     <g id="line2d_3">
      <path d="M 160.054443 269.04351
L 160.054443 18.118365
" clip-path="url(#p55ec4d22c4)" style="fill: none; stroke: #b0b0b0; stroke-opacity: 0.2; stroke-width: 0.8; stroke-linecap: square"/>
     </g>
     <g id="line2d_4">
      <g>
       <use xlink:href="#mc78f93be90" x="160.054443" y="269.04351" style="stroke: #000000; stroke-width: 0.8"/>
      </g>
     </g>
     <g id="text_2">
      <text style="font-size: 10px; font-family: 'DejaVu Sans', 'Bitstream Vera Sans', 'Computer Modern Sans Serif', 'Lucida Grande', 'Verdana', 'Geneva', 'Lucid', 'Arial', 'Helvetica', 'Avant Garde', sans-serif; text-anchor: middle" x="160.054443" y="283.641948" transform="rotate(-0 160.054443 283.641948)">1000</text>
     </g>
    </g>
    <g id="xtick_3">
     <g id="line2d_5">
      <path d="M 240.300473 269.04351
L 240.300473 18.118365
" clip-path="url(#p55ec4d22c4)" style="fill: none; stroke: #b0b0b0; stroke-opacity: 0.2; stroke-width: 0.8; stroke-linecap: square"/>
     </g>
     <g id="line2d_6">
      <g>
       <use xlink:href="#mc78f93be90" x="240.300473" y="269.04351" style="stroke: #000000; stroke-width: 0.8"/>
      </g>
     </g>
     <g id="text_3">
      <text style="font-size: 10px; font-family: 'DejaVu Sans', 'Bitstream Vera Sans', 'Computer Modern Sans Serif', 'Lucida Grande', 'Verdana', 'Geneva', 'Lucid', 'Arial', 'Helvetica', 'Avant Garde', sans-serif; text-anchor: middle" x="240.300473" y="283.641948" transform="rotate(-0 240.300473 283.641948)">2000</text>
     </g>
    </g>
    <g id="xtick_4">
     <g id="line2d_7">
      <path d="M 320.546502 269.04351
L 320.546502 18.118365
" clip-path="url(#p55ec4d22c4)" style="fill: none; stroke: #b0b0b0; stroke-opacity: 0.2; stroke-width: 0.8; stroke-linecap: square"/>
     </g>
     <g id="line2d_8">
      <g>
       <use xlink:href="#mc78f93be90" x="320.546502" y="269.04351" style="stroke: #000000; stroke-width: 0.8"/>
      </g>
     </g>
     <g id="text_4">
      <text style="font-size: 10px; font-family: 'DejaVu Sans', 'Bitstream Vera Sans', 'Computer Modern Sans Serif', 'Lucida Grande', 'Verdana', 'Geneva', 'Lucid', 'Arial', 'Helvetica', 'Avant Garde', sans-serif; text-anchor: middle" x="320.546502" y="283.641948" transform="rotate(-0 320.546502 283.641948)">3000</text>
     </g>
    </g>
    <g id="xtick_5">
     <g id="line2d_9">
      <path d="M 400.792531 269.04351
L 400.792531 18.118365
" clip-path="url(#p55ec4d22c4)" style="fill: none; stroke: #b0b0b0; stroke-opacity: 0.2; stroke-width: 0.8; stroke-linecap: square"/>
     </g>
     <g id="line2d_10">
      <g>
       <use xlink:href="#mc78f93be90" x="400.792531" y="269.04351" style="stroke: #000000; stroke-width: 0.8"/>
      </g>
     </g>
     <g id="text_5">
      <text style="font-size: 10px; font-family: 'DejaVu Sans', 'Bitstream Vera Sans', 'Computer Modern Sans Serif', 'Lucida Grande', 'Verdana', 'Geneva', 'Lucid', 'Arial', 'Helvetica', 'Avant Garde', sans-serif; text-anchor: middle" x="400.792531" y="283.641948" transform="rotate(-0 400.792531 283.641948)">4000</text>
     </g>
    </g>
    <g id="xtick_6">
     <g id="line2d_11">
      <path d="M 481.03856 269.04351
L 481.03856 18.118365
" clip-path="url(#p55ec4d22c4)" style="fill: none; stroke: #b0b0b0; stroke-opacity: 0.2; stroke-width: 0.8; stroke-linecap: square"/>
     </g>
     <g id="line2d_12">
      <g>
       <use xlink:href="#mc78f93be90" x="481.03856" y="269.04351" style="stroke: #000000; stroke-width: 0.8"/>
      </g>
     </g>
     <g id="text_6">
      <text style="font-size: 10px; font-family: 'DejaVu Sans', 'Bitstream Vera Sans', 'Computer Modern Sans Serif', 'Lucida Grande', 'Verdana', 'Geneva', 'Lucid', 'Arial', 'Helvetica', 'Avant Garde', sans-serif; text-anchor: middle" x="481.03856" y="283.641948" transform="rotate(-0 481.03856 283.641948)">5000</text>
     </g>
    </g>
    <g id="text_7">
     <text style="font-size: 10px; font-family: 'DejaVu Sans', 'Bitstream Vera Sans', 'Computer Modern Sans Serif', 'Lucida Grande', 'Verdana', 'Geneva', 'Lucid', 'Arial', 'Helvetica', 'Avant Garde', sans-serif; text-anchor: middle" x="281.426563" y="297.320073" transform="rotate(-0 281.426563 297.320073)">Simulation step</text>
    </g>
   </g>
   <g id="matplotlib.axis_2">
    <g id="ytick_1">
     <g id="line2d_13">
      <path d="M 61.853365 269.04351
L 500.99976 269.04351
" clip-path="url(#p55ec4d22c4)" style="fill: none; stroke: #b0b0b0; stroke-opacity: 0.2; stroke-width: 0.8; stroke-linecap: square"/>
     </g>
     <g id="line2d_14">
      <defs>
       <path id="m8b844df6e3" d="M 0 0
L -3.5 0
" style="stroke: #000000; stroke-width: 0.8"/>
      </defs>
      <g>
       <use xlink:href="#m8b844df6e3" x="61.853365" y="269.04351" style="stroke: #000000; stroke-width: 0.8"/>
      </g>
     </g>
     <g id="text_8">
      <text style="font-size: 10px; font-family: 'DejaVu Sans', 'Bitstream Vera Sans', 'Computer Modern Sans Serif', 'Lucida Grande', 'Verdana', 'Geneva', 'Lucid', 'Arial', 'Helvetica', 'Avant Garde', sans-serif; text-anchor: end" x="54.853365" y="272.842729" transform="rotate(-0 54.853365 272.842729)">0</text>
     </g>
    </g>
    <g id="ytick_2">
     <g id="line2d_15">
      <path d="M 61.853365 238.204044
L 500.99976 238.204044
" clip-path="url(#p55ec4d22c4)" style="fill: none; stroke: #b0b0b0; stroke-opacity: 0.2; stroke-width: 0.8; stroke-linecap: square"/>
     </g>
     <g id="line2d_16">
      <g>
       <use xlink:href="#m8b844df6e3" x="61.853365" y="238.204044" style="stroke: #000000; stroke-width: 0.8"/>
      </g>
     </g>
     <g id="text_9">
      <text style="font-size: 10px; font-family: 'DejaVu Sans', 'Bitstream Vera Sans', 'Computer Modern Sans Serif', 'Lucida Grande', 'Verdana', 'Geneva', 'Lucid', 'Arial', 'Helvetica', 'Avant Garde', sans-serif; text-anchor: end" x="54.853365" y="242.003263" transform="rotate(-0 54.853365 242.003263)">20000</text>
     </g>
    </g>
    <g id="ytick_3">
     <g id="line2d_17">
      <path d="M 61.853365 207.364579
L 500.99976 207.364579
" clip-path="url(#p55ec4d22c4)" style="fill: none; stroke: #b0b0b0; stroke-opacity: 0.2; stroke-width: 0.8; stroke-linecap: square"/>
     </g>
     <g id="line2d_18">
      <g>
       <use xlink:href="#m8b844df6e3" x="61.853365" y="207.364579" style="stroke: #000000; stroke-width: 0.8"/>
      </g>
     </g>
     <g id="text_10">
      <text style="font-size: 10px; font-family: 'DejaVu Sans', 'Bitstream Vera Sans', 'Computer Modern Sans Serif', 'Lucida Grande', 'Verdana', 'Geneva', 'Lucid', 'Arial', 'Helvetica', 'Avant Garde', sans-serif; text-anchor: end" x="54.853365" y="211.163798" transform="rotate(-0 54.853365 211.163798)">40000</text>
     </g>
    </g>
    <g id="ytick_4">
     <g id="line2d_19">
      <path d="M 61.853365 176.525113
L 500.99976 176.525113
" clip-path="url(#p55ec4d22c4)" style="fill: none; stroke: #b0b0b0; stroke-opacity: 0.2; stroke-width: 0.8; stroke-linecap: square"/>
     </g>
     <g id="line2d_20">
      <g>
       <use xlink:href="#m8b844df6e3" x="61.853365" y="176.525113" style="stroke: #000000; stroke-width: 0.8"/>
      </g>
     </g>
     <g id="text_11">
      <text style="font-size: 10px; font-family: 'DejaVu Sans', 'Bitstream Vera Sans', 'Computer Modern Sans Serif', 'Lucida Grande', 'Verdana', 'Geneva', 'Lucid', 'Arial', 'Helvetica', 'Avant Garde', sans-serif; text-anchor: end" x="54.853365" y="180.324332" transform="rotate(-0 54.853365 180.324332)">60000</text>
     </g>
    </g>
    <g id="ytick_5">
     <g id="line2d_21">
      <path d="M 61.853365 145.685648
L 500.99976 145.685648
" clip-path="url(#p55ec4d22c4)" style="fill: none; stroke: #b0b0b0; stroke-opacity: 0.2; stroke-width: 0.8; stroke-linecap: square"/>
     </g>
     <g id="line2d_22">
      <g>
       <use xlink:href="#m8b844df6e3" x="61.853365" y="145.685648" style="stroke: #000000; stroke-width: 0.8"/>
      </g>
     </g>
     <g id="text_12">
      <text style="font-size: 10px; font-family: 'DejaVu Sans', 'Bitstream Vera Sans', 'Computer Modern Sans Serif', 'Lucida Grande', 'Verdana', 'Geneva', 'Lucid', 'Arial', 'Helvetica', 'Avant Garde', sans-serif; text-anchor: end" x="54.853365" y="149.484866" transform="rotate(-0 54.853365 149.484866)">80000</text>
     </g>
    </g>
    <g id="ytick_6">
     <g id="line2d_23">
      <path d="M 61.853365 114.846182
L 500.99976 114.846182
" clip-path="url(#p55ec4d22c4)" style="fill: none; stroke: #b0b0b0; stroke-opacity: 0.2; stroke-width: 0.8; stroke-linecap: square"/>
     </g>
     <g id="line2d_24">
      <g>
       <use xlink:href="#m8b844df6e3" x="61.853365" y="114.846182" style="stroke: #000000; stroke-width: 0.8"/>
      </g>
     </g>
     <g id="text_13">
      <text style="font-size: 10px; font-family: 'DejaVu Sans', 'Bitstream Vera Sans', 'Computer Modern Sans Serif', 'Lucida Grande', 'Verdana', 'Geneva', 'Lucid', 'Arial', 'Helvetica', 'Avant Garde', sans-serif; text-anchor: end" x="54.853365" y="118.645401" transform="rotate(-0 54.853365 118.645401)">100000</text>
     </g>
    </g>
    <g id="ytick_7">
     <g id="line2d_25">
      <path d="M 61.853365 84.006716
L 500.99976 84.006716
" clip-path="url(#p55ec4d22c4)" style="fill: none; stroke: #b0b0b0; stroke-opacity: 0.2; stroke-width: 0.8; stroke-linecap: square"/>
     </g>
     <g id="line2d_26">
      <g>
       <use xlink:href="#m8b844df6e3" x="61.853365" y="84.006716" style="stroke: #000000; stroke-width: 0.8"/>
      </g>
     </g>
     <g id="text_14">
      <text style="font-size: 10px; font-family: 'DejaVu Sans', 'Bitstream Vera Sans', 'Computer Modern Sans Serif', 'Lucida Grande', 'Verdana', 'Geneva', 'Lucid', 'Arial', 'Helvetica', 'Avant Garde', sans-serif; text-anchor: end" x="54.853365" y="87.805935" transform="rotate(-0 54.853365 87.805935)">120000</text>
     </g>
    </g>
    <g id="ytick_8">
     <g id="line2d_27">
      <path d="M 61.853365 53.167251
L 500.99976 53.167251
" clip-path="url(#p55ec4d22c4)" style="fill: none; stroke: #b0b0b0; stroke-opacity: 0.2; stroke-width: 0.8; stroke-linecap: square"/>
     </g>
     <g id="line2d_28">
      <g>
       <use xlink:href="#m8b844df6e3" x="61.853365" y="53.167251" style="stroke: #000000; stroke-width: 0.8"/>
      </g>
     </g>
     <g id="text_15">
      <text style="font-size: 10px; font-family: 'DejaVu Sans', 'Bitstream Vera Sans', 'Computer Modern Sans Serif', 'Lucida Grande', 'Verdana', 'Geneva', 'Lucid', 'Arial', 'Helvetica', 'Avant Garde', sans-serif; text-anchor: end" x="54.853365" y="56.966469" transform="rotate(-0 54.853365 56.966469)">140000</text>
     </g>
    </g>
    <g id="ytick_9">
     <g id="line2d_29">
      <path d="M 61.853365 22.327785
L 500.99976 22.327785
" clip-path="url(#p55ec4d22c4)" style="fill: none; stroke: #b0b0b0; stroke-opacity: 0.2; stroke-width: 0.8; stroke-linecap: square"/>
     </g>
     <g id="line2d_30">
      <g>
       <use xlink:href="#m8b844df6e3" x="61.853365" y="22.327785" style="stroke: #000000; stroke-width: 0.8"/>
      </g>
     </g>
     <g id="text_16">
      <text style="font-size: 10px; font-family: 'DejaVu Sans', 'Bitstream Vera Sans', 'Computer Modern Sans Serif', 'Lucida Grande', 'Verdana', 'Geneva', 'Lucid', 'Arial', 'Helvetica', 'Avant Garde', sans-serif; text-anchor: end" x="54.853365" y="26.127004" transform="rotate(-0 54.853365 26.127004)">160000</text>
     </g>
    </g>
    <g id="text_17">
     <text style="font-size: 10px; font-family: 'DejaVu Sans', 'Bitstream Vera Sans', 'Computer Modern Sans Serif', 'Lucida Grande', 'Verdana', 'Geneva', 'Lucid', 'Arial', 'Helvetica', 'Avant Garde', sans-serif; text-anchor: middle" x="10.598678" y="143.580938" transform="rotate(-90 10.598678 143.580938)">Completed tasks</text>
    </g>
   </g>
   <g id="line2d_31">
    <path d="M 81.814565 269.038627
L 87.833017 268.851534
L 91.845318 268.518468
L 95.85762 267.880091
L 107.894524 265.437862
L 117.925278 263.36545
L 150.02369 256.952384
L 168.079046 253.848905
L 186.134403 250.898853
L 246.318925 241.065176
L 272.398884 236.902619
L 286.441939 234.633862
L 304.497296 231.648088
L 332.583406 227.069712
L 346.626461 224.780396
L 400.792531 215.803285
L 434.897093 210.111861
L 477.026259 203.118241
L 481.03856 202.467015
L 481.03856 202.467015
" clip-path="url(#p55ec4d22c4)" style="fill: none; stroke: #0072b2; stroke-width: 2; stroke-linecap: square"/>
   </g>
   <g id="line2d_32">
    <path d="M 81.814565 269.017296
L 83.820716 268.775207
L 85.826866 268.307989
L 87.833017 267.578635
L 89.839168 266.567101
L 93.851469 264.223302
L 97.863771 261.571107
L 103.882223 257.359978
L 113.912976 250.024812
L 117.925278 247.591578
L 125.949881 243.167656
L 131.968333 239.577943
L 133.974484 238.228716
L 137.986785 235.721467
L 148.017539 229.32382
L 156.042142 224.37717
L 160.054443 222.042622
L 172.091348 215.293405
L 184.128252 207.961322
L 190.146704 204.181946
L 204.189759 195.611658
L 210.208212 192.128341
L 226.257417 183.198773
L 236.288171 177.075598
L 242.306623 173.157443
L 248.325075 169.758934
L 254.343528 166.101374
L 272.398884 155.868839
L 280.423487 151.088722
L 286.441939 147.495924
L 292.460392 143.830654
L 296.472693 141.531571
L 304.497296 136.663562
L 312.521899 132.108573
L 320.546502 127.471859
L 330.577255 121.65862
L 336.595708 117.874617
L 340.608009 115.64184
L 372.706421 96.818972
L 378.724873 93.364952
L 382.737174 90.924008
L 414.835586 72.051797
L 420.854038 68.55306
L 424.86634 66.203093
L 430.884792 62.621089
L 434.897093 60.263412
L 452.95245 49.824253
L 456.964751 47.296958
L 481.03856 33.150895
L 481.03856 33.150895
" clip-path="url(#p55ec4d22c4)" style="fill: none; stroke: #009e73; stroke-width: 1.5; stroke-linecap: square"/>
   </g>
   <g id="line2d_33">
    <path d="M 81.814565 269.02038
L 83.820716 268.756703
L 85.826866 268.277149
L 87.833017 267.41827
L 89.839168 266.406736
L 91.845318 265.23021
L 101.876072 258.399268
L 107.894524 254.203559
L 111.906826 251.434175
L 115.919127 249.05491
L 131.968333 239.571775
L 144.005237 231.764764
L 164.066745 219.620182
L 176.103649 212.567197
L 190.146704 203.969154
L 194.159006 201.338547
L 218.232814 186.74377
L 236.288171 176.023972
L 242.306623 172.21684
L 246.318925 169.842201
L 258.355829 162.505492
L 264.374281 158.943534
L 268.386583 156.592025
L 276.411186 151.764106
L 282.429638 148.240697
L 284.435789 147.102721
L 288.44809 144.589305
L 322.552652 124.1597
L 330.577255 119.428926
L 340.608009 113.524711
L 346.626461 110.019806
L 354.651064 105.13946
L 356.657215 103.794859
L 368.694119 96.684821
L 374.712571 93.12903
L 382.737174 88.325783
L 388.755627 84.807
L 394.774079 81.208035
L 398.78638 78.902785
L 404.804832 75.300735
L 412.829435 70.520618
L 424.86634 63.36432
L 448.940149 49.321569
L 450.946299 47.980053
L 462.983204 40.737404
L 475.020108 33.499381
L 481.03856 30.066949
L 481.03856 30.066949
" clip-path="url(#p55ec4d22c4)" style="fill: none; stroke-dasharray: 5.55,2.4; stroke-dashoffset: 0; stroke: #d55e00; stroke-width: 1.5"/>
   </g>
   <g id="patch_3">
    <path d="M 61.853365 269.04351
L 61.853365 18.118365
" style="fill: none; stroke: #000000; stroke-width: 0.8; stroke-linejoin: miter; stroke-linecap: square"/>
   </g>
   <g id="patch_4">
    <path d="M 500.99976 269.04351
L 500.99976 18.118365
" style="fill: none; stroke: #000000; stroke-width: 0.8; stroke-linejoin: miter; stroke-linecap: square"/>
   </g>
   <g id="patch_5">
    <path d="M 61.853365 269.04351
L 500.99976 269.04351
" style="fill: none; stroke: #000000; stroke-width: 0.8; stroke-linejoin: miter; stroke-linecap: square"/>
   </g>
   <g id="patch_6">
    <path d="M 61.853365 18.118365
L 500.99976 18.118365
" style="fill: none; stroke: #000000; stroke-width: 0.8; stroke-linejoin: miter; stroke-linecap: square"/>
   </g>
   <g id="text_18">
    <text style="font-size: 12px; font-family: 'DejaVu Sans', 'Bitstream Vera Sans', 'Computer Modern Sans Serif', 'Lucida Grande', 'Verdana', 'Geneva', 'Lucid', 'Arial', 'Helvetica', 'Avant Garde', sans-serif; text-anchor: middle" x="281.426563" y="12.118365" transform="rotate(-0 281.426563 12.118365)">WAREHOUSE local reference gap: unequal compute</text>
   </g>
   <g id="legend_1">
    <g id="patch_7">
     <path d="M 67.453365 59.745865
L 231.180865 59.745865
Q 232.780865 59.745865 232.780865 58.145865
L 232.780865 23.718365
Q 232.780865 22.118365 231.180865 22.118365
L 67.453365 22.118365
Q 65.853365 22.118365 65.853365 23.718365
L 65.853365 58.145865
Q 65.853365 59.745865 67.453365 59.745865
z
" style="fill: #ffffff; opacity: 0.8; stroke: #cccccc; stroke-linejoin: miter"/>
    </g>
    <g id="line2d_34">
     <path d="M 69.053365 28.597115
L 77.053365 28.597115
L 85.053365 28.597115
" style="fill: none; stroke: #0072b2; stroke-width: 2; stroke-linecap: square"/>
    </g>
    <g id="text_19">
     <text style="font-size: 8px; font-family: 'DejaVu Sans', 'Bitstream Vera Sans', 'Computer Modern Sans Serif', 'Lucida Grande', 'Verdana', 'Geneva', 'Lucid', 'Arial', 'Helvetica', 'Avant Garde', sans-serif; text-anchor: start" x="91.453365" y="31.397115" transform="rotate(-0 91.453365 31.397115)">CGAR 8 GiB profile, six-seed mean</text>
    </g>
    <g id="line2d_35">
     <path d="M 69.053365 40.339615
L 77.053365 40.339615
L 85.053365 40.339615
" style="fill: none; stroke: #009e73; stroke-width: 1.5; stroke-linecap: square"/>
    </g>
    <g id="text_20">
     <text style="font-size: 8px; font-family: 'DejaVu Sans', 'Bitstream Vera Sans', 'Computer Modern Sans Serif', 'Lucida Grande', 'Verdana', 'Geneva', 'Lucid', 'Arial', 'Helvetica', 'Avant Garde', sans-serif; text-anchor: start" x="91.453365" y="43.139615" transform="rotate(-0 91.453365 43.139615)">KK (no timeout; 36.2 GiB)</text>
    </g>
    <g id="line2d_36">
     <path d="M 69.053365 52.082115
L 77.053365 52.082115
L 85.053365 52.082115
" style="fill: none; stroke-dasharray: 5.55,2.4; stroke-dashoffset: 0; stroke: #d55e00; stroke-width: 1.5"/>
    </g>
    <g id="text_21">
     <text style="font-size: 8px; font-family: 'DejaVu Sans', 'Bitstream Vera Sans', 'Computer Modern Sans Serif', 'Lucida Grande', 'Verdana', 'Geneva', 'Lucid', 'Arial', 'Helvetica', 'Avant Garde', sans-serif; text-anchor: start" x="91.453365" y="54.882115" transform="rotate(-0 91.453365 54.882115)">NMS (timeout; 37.0 GiB)</text>
    </g>
   </g>
  </g>
 </g>
 <defs>
  <clipPath id="p55ec4d22c4">
   <rect x="61.853365" y="18.118365" width="439.146395" height="250.925145"/>
  </clipPath>
 </defs>
</svg>
